<?xml version="1.0" encoding="UTF-8"?><svg id="uuid-5cb8eb9b-e501-4418-b855-9cc1f86d2ca9" xmlns="http://www.w3.org/2000/svg" viewBox="0 0 95.3 95.3"><path d="M44.6,63.5l-29.1,29.1c-1.7,1.7-4,2.7-6.4,2.7s-4.8-1-6.4-2.7C1,91,0,88.7,0,86.2s.2-2.4,.7-3.5c.5-1.1,1.1-2.1,2-2.9l29.1-29.1,12.8,12.8Z" style="fill:#231f20;"/><path d="M95.3,9.1c0,2.4-1,4.7-2.7,6.4l-29.1,29.1-12.8-12.8L79.8,2.7C81.5,1,83.8,0,86.2,0s4.8,1,6.4,2.7,2.7,3.9,2.7,6.4Z" style="fill:#231f20;"/><path d="M95.3,86.2h0c0,5-4.1,9.1-9.1,9.1h0c-2.4,0-4.7-1-6.4-2.7L47.6,60.5,2.7,15.5C1,13.8,0,11.5,0,9.1H0C0,4.1,4.1,0,9.1,0h0c2.4,0,4.7,1,6.4,2.7L47.6,34.8l12.8,12.8,32.2,32.2c1.7,1.7,2.7,4,2.7,6.4Z" style="fill:#231f20;"/></svg>