<?xml version="1.0" encoding="UTF-8"?><svg id="uuid-81847cd2-0b4c-44bf-810e-c04ed354ceaf" xmlns="http://www.w3.org/2000/svg" viewBox="0 0 1079.8 981.8"><polygon points="1066.6 524.3 802.5 981.8 274.2 981.8 59.5 609.8 462.6 430.3 516.1 550.5 966 350.1 1066.6 524.3" style="fill:#1d293b;"/><polygon points="1000.2 225.1 920.7 223.7 952 280.1 550.2 459.1 496.7 338.9 0 560.1 20.1 594.9 476.4 391.8 529.9 511.9 971.4 315.3 997.8 362.9 1038.8 294.7 1079.8 226.5 1000.2 225.1" style="fill:#f37321;"/><path d="M275.1,18.1c-59.5,0-107.8,48.3-107.8,107.8s48.3,107.8,107.8,107.8,107.8-48.3,107.8-107.8-48.3-107.8-107.8-107.8Zm-43.6,414.7l-80.4-163.2h-19.9c-71.8,0-71.8,48.3-71.8,107.8v132.1l172.1-76.7h0Zm43.6-199.2l-53.9,53.9,27.5,137.5v.2s58-25.8,58-25.8v-.2s22.4-111.6,22.4-111.6l-53.9-53.9Zm143.8,35.9h-19.8l-55.8,113.4,144-64.3c-6-29.6-22.7-49.1-68.3-49.1Z" style="fill:#f37321;"/><polygon points="643.1 164.1 643.1 391.8 563.1 427.5 563.1 164.1 643.1 164.1" style="fill:#f37321;"/><polygon points="751.8 57.8 751.8 343.5 655.1 386.5 655.1 57.8 751.8 57.8" style="fill:#f37321;"/><polygon points="880.1 0 880.1 286.3 785.8 328.3 785.8 0 880.1 0" style="fill:#f37321;"/></svg>