<?xml version="1.0" encoding="UTF-8"?><svg id="uuid-f993ad2d-1988-4283-858c-9d9932cea758" xmlns="http://www.w3.org/2000/svg" viewBox="0 0 981.8 981.8"><path d="M779.3,249.8c-25.7,59.5-42.3,123.9-47.8,191.5-.8,9.9-9.1,17.6-19,17.6h-203.3c-10,0-18.3-7.7-19.1-17.6-10.2-127-59.5-242.9-135.8-335.8-6.2-7.6-5.7-18.7,1.3-25.7l40.9-40.9c51.9-51.9,137-51.9,188.9,0l189.9,189.9c5.5,5.5,7.2,13.8,4.1,20.9Z" style="fill:#354255;"/><path d="M775.4,752.7l-190.1,190.1c-51.9,51.9-137,51.9-188.9,0l-40.9-40.9c-7-6.9-7.5-18-1.3-25.6,76.3-92.9,125.6-208.9,135.8-335.8,.8-9.9,9.1-17.5,19.1-17.5h203.3c10,0,18.2,7.6,19,17.5,5.5,67.6,22,132,47.8,191.5,3.1,7,1.5,15.2-3.9,20.7Z" style="fill:#354255;"/><path d="M942.8,585.3l-88.5,88.5c-10,10-27.1,6.1-31.6-7.2-15.5-45.5-25.2-93.6-28.1-143.7-.7-10.6-1-21.3-1-32.1s.3-21.4,1-32c2.9-50,12.6-98.2,28.1-143.7,4.6-13.4,21.6-17.2,31.6-7.2l88.5,88.5c51.9,51.9,51.9,136.9,0,188.9Z" style="fill:#354255;"/><path d="M428,490.9c0,10.8-.3,21.4-.9,32.1-6.7,114.7-48.9,219.8-115.9,304.6-7,9-20.5,9.7-28.5,1.6L39,585.3c-51.9-51.9-51.9-136.9,0-188.9l243.7-243.7c8.1-8.1,21.4-7.4,28.5,1.6,66.9,84.7,109.2,189.9,115.9,304.6,.7,10.6,.9,21.3,.9,32Z" style="fill:#354255;"/></svg>