<?xml version="1.0" encoding="UTF-8"?><svg id="uuid-404a96d6-8832-400a-aba3-b31803ba162c" xmlns="http://www.w3.org/2000/svg" viewBox="0 0 1017.9 925.6"><polygon points="1005.5 494.3 756.5 925.6 258.5 925.6 56.1 574.9 436.1 405.6 486.6 518.9 910.7 330 1005.5 494.3" style="fill:#1d293b;"/><polygon points="942.9 212.2 867.9 210.9 897.4 264.1 518.7 432.7 468.2 319.4 0 528 19 560.8 449.1 369.3 499.5 482.6 915.8 297.2 940.6 342.1 979.3 277.8 1017.9 213.5 942.9 212.2" style="fill:#f37321;"/><path d="M259.4,17.1c-56.1,0-101.6,45.5-101.6,101.6s45.5,101.6,101.6,101.6,101.6-45.5,101.6-101.6-45.5-101.6-101.6-101.6Zm-41.1,390.9l-75.7-153.8h-18.8c-67.7,0-67.7,45.5-67.7,101.7v124.5l162.3-72.3h0Zm41.1-187.7l-50.8,50.8,25.9,129.6h0c0,.1,54.6-24.2,54.6-24.2v-.2s21.1-105.2,21.1-105.2l-50.8-50.8Zm135.5,33.9h-18.7l-52.6,106.9,135.8-60.6c-5.7-27.9-21.4-46.3-64.4-46.3Z" style="fill:#f37321;"/><polygon points="606.3 154.7 606.3 369.4 530.8 403 530.8 154.7 606.3 154.7" style="fill:#f37321;"/><polygon points="708.7 54.5 708.7 323.8 617.6 364.4 617.6 54.5 708.7 54.5" style="fill:#f37321;"/><polygon points="829.7 0 829.7 269.9 740.8 309.5 740.8 0 829.7 0" style="fill:#f37321;"/></svg>