<?xml version="1.0" encoding="utf-8"?>
<!-- Generator: Adobe Illustrator 27.0.0, SVG Export Plug-In . SVG Version: 6.00 Build 0)  -->
<svg version="1.1" id="Layer_1" xmlns="http://www.w3.org/2000/svg" xmlns:xlink="http://www.w3.org/1999/xlink" x="0px" y="0px"
	 viewBox="0 0 715.9 239.4" style="enable-background:new 0 0 715.9 239.4;" xml:space="preserve">
<style type="text/css">
	.st0{fill:#FFFFFF;}
</style>
<g>
	<path class="st0" d="M48.8,10.7l-35.1,90h14.8l8.8-24.4h36.8l8.9,24.4h15.6l-34.1-90H48.8z M41.8,64.1l13.9-38.6l14,38.6H41.8z"/>
	<path class="st0" d="M117.4,94.5c3.2,2.7,6.8,4.6,10.7,5.7c4,1.2,8,1.8,12.1,1.8c3.9,0,7.5-0.4,10.9-1.1c3.4-0.7,6.7-1.8,9.8-3.2
		V85c-2.7,1.3-5.6,2.3-8.8,3.2c-3.1,0.9-6.4,1.3-9.7,1.3c-7.6,0-13.2-1.9-16.5-5.6c-3.4-3.7-5.1-9.6-5.1-17.7c0-7.8,1.8-13.5,5.3-17
		c3.6-3.5,8.8-5.3,15.9-5.3c3.3,0,6.5,0.4,9.6,1.1c3.1,0.8,6.1,1.8,9.2,3.2V35.5c-3.1-1.3-6.4-2.4-10-3c-3.6-0.7-7.2-1-10.8-1
		c-4.2,0-8.3,0.6-12.3,1.8c-4,1.2-7.6,3.1-10.7,5.9c-3.1,2.7-5.6,6.4-7.4,11c-1.8,4.6-2.7,10.3-2.7,17.1c0,6.7,0.9,12.2,2.8,16.7
		S114.2,91.9,117.4,94.5z"/>
	<path class="st0" d="M184.3,94.5c3.2,2.7,6.8,4.6,10.7,5.7c4,1.2,8,1.8,12.1,1.8c3.9,0,7.5-0.4,10.9-1.1c3.4-0.7,6.7-1.8,9.8-3.2
		V85c-2.7,1.3-5.6,2.3-8.8,3.2c-3.1,0.9-6.4,1.3-9.7,1.3c-7.6,0-13.2-1.9-16.5-5.6c-3.4-3.7-5.1-9.6-5.1-17.7c0-7.8,1.8-13.5,5.3-17
		c3.6-3.5,8.8-5.3,15.9-5.3c3.3,0,6.5,0.4,9.6,1.1c3.1,0.8,6.1,1.8,9.2,3.2V35.5c-3.1-1.3-6.4-2.4-10-3c-3.6-0.7-7.2-1-10.8-1
		c-4.2,0-8.3,0.6-12.3,1.8c-4,1.2-7.6,3.1-10.7,5.9c-3.1,2.7-5.6,6.4-7.4,11c-1.8,4.6-2.7,10.3-2.7,17.1c0,6.7,0.9,12.2,2.8,16.7
		S181.1,91.9,184.3,94.5z"/>
	<path class="st0" d="M291.5,35.4c-4.9-2.7-11-4.1-18.5-4.1c-10.4,0-18.4,2.9-23.9,8.6c-5.5,5.7-8.3,14.7-8.3,26.9
		c0,11.5,2.7,20.4,8,26.6c5.4,6.2,13.5,9.3,24.5,9.3c10.4,0,18.5-3.1,24.1-9.4c5.6-6.3,8.4-15.1,8.4-26.5c0-7.6-1.2-14-3.5-19.3
		C300,42.2,296.4,38.2,291.5,35.4z M290,79.2c-1.2,3.6-3.2,6.4-5.9,8.4c-2.7,2-6.3,3-10.9,3c-6.7,0-11.4-2.1-14.2-6.3
		c-2.8-4.2-4.2-10.1-4.2-17.5c0-4.9,0.6-9.2,1.8-12.7c1.2-3.5,3.1-6.2,5.8-8.1c2.7-1.9,6.3-2.8,10.8-2.8c4.5,0,8.1,0.9,10.8,2.6
		s4.7,4.4,5.9,7.9c1.3,3.5,1.9,7.9,1.9,13.1C291.8,71.5,291.2,75.6,290,79.2z"/>
	<path class="st0" d="M368,73.4c0,5.8-1.3,10-3.8,12.7c-2.6,2.7-6.5,4.1-11.9,4.1c-5.4,0-9.4-1.4-11.9-4.1c-2.6-2.7-3.8-7-3.8-12.7
		V32.9h-14.2v42.5c0,6,1.2,11.1,3.6,15.1c2.4,4,5.9,7.1,10.3,9.1c4.5,2,9.8,3,16,3c9.3,0,16.5-2.3,21.7-6.9
		c5.2-4.6,7.8-11.4,7.8-20.4V32.9H368V73.4z"/>
	<path class="st0" d="M448.7,34.1c-4-1.8-9.3-2.6-15.7-2.6c-2.7,0-5.5,0.2-8.4,0.5c-2.9,0.4-5.7,0.9-8.5,1.5
		c-2.8,0.6-5.4,1.4-7.9,2.2c-2.5,0.9-4.7,1.8-6.7,2.8v62.2h14.2V46.2c2.2-0.8,4.7-1.4,7.2-1.9c2.6-0.4,5.1-0.7,7.5-0.7
		c3.4,0,6.2,0.4,8.3,1.2c2.1,0.8,3.7,1.9,4.9,3.3c1.1,1.4,1.9,2.9,2.3,4.6c0.4,1.7,0.6,3.4,0.6,5.1v42.9h14.2V55.9
		c0-5.5-1-10.1-3-13.7C455.7,38.5,452.7,35.8,448.7,34.1z"/>
	<path class="st0" d="M485,83.3c0,6.3,1.8,11.1,5.3,14.3c3.6,3.2,8.4,4.9,14.5,4.9c1.8,0,3.7-0.2,5.7-0.5c2-0.4,3.8-0.9,5.5-1.6
		V87.7c-1.1,0.6-2.4,1.1-3.9,1.6c-1.5,0.4-3.1,0.6-4.6,0.6c-3.1,0-5.1-0.8-6.3-2.4c-1.1-1.6-1.7-3.9-1.7-7.1V44.7H516V32.9h-16.5
		V14.1H485v18.9h-10.9v11.7H485V83.3z"/>
	<rect x="532.5" y="9.3" class="st0" width="15.1" height="12.8"/>
	<polygon class="st0" points="532.9,33.4 532.9,100.7 547.2,100.7 547,33.4 	"/>
	<path class="st0" d="M614.6,34.1c-4-1.8-9.3-2.6-15.7-2.6c-2.7,0-5.5,0.2-8.4,0.5c-2.9,0.4-5.7,0.9-8.5,1.5
		c-2.8,0.6-5.4,1.4-7.9,2.2c-2.5,0.9-4.7,1.8-6.7,2.8v62.2h14.2V46.2c2.2-0.8,4.7-1.4,7.2-1.9c2.6-0.4,5.1-0.7,7.5-0.7
		c3.4,0,6.2,0.4,8.3,1.2s3.7,1.9,4.9,3.3c1.1,1.4,1.9,2.9,2.3,4.6c0.4,1.7,0.6,3.4,0.6,5.1v42.9h14.2V55.9c0-5.5-1-10.1-3-13.7
		S618.7,35.8,614.6,34.1z"/>
	<path class="st0" d="M701.5,39.1c-2.4-2.6-5.6-4.5-9.6-5.7c-4-1.3-8.4-1.9-13.2-1.9c-4.6,0-9,0.5-13.3,1.6c-4.3,1-8.1,2.9-11.5,5.6
		c-3.4,2.7-6,6.5-8,11.3c-1.9,4.9-2.9,11.1-2.9,18.8c0,7.2,1.1,13.3,3.4,18.3c2.3,5,5.7,8.9,10.3,11.5c4.5,2.7,10.1,4,16.7,4.1
		c2.6,0,5.2-0.3,7.9-1c2.7-0.7,5.2-1.6,7.6-2.7c0.8-0.4,1.5-0.8,2.2-1.2v4.6c0,2.4-0.5,4.7-1.3,6.8c-0.9,2.1-2.7,3.8-5.3,5.2
		c-2.7,1.3-6.6,2-11.9,2c-2.8,0-5.5-0.2-8.2-0.7c-2.7-0.5-5.1-1.1-7.2-1.7c-2.2-0.6-4-1.2-5.4-1.8v13c2.4,0.8,5.5,1.6,9.2,2.4
		c3.7,0.8,7.9,1.1,12.5,1.1c5.8,0,10.8-0.7,14.8-2c4-1.3,7.3-3.2,9.8-5.7c2.5-2.4,4.3-5.2,5.4-8.3c1.1-3.1,1.7-6.5,1.7-10.1V49
		C705.2,45,703.9,41.7,701.5,39.1z M683.7,90.2c-2.7,0.7-5.4,1-8,1c-6.2,0-10.8-2.1-13.8-6.3c-3-4.2-4.5-9.8-4.5-16.6
		c0-4.6,0.5-8.8,1.6-12.5c1.1-3.8,3.1-6.8,6-9c2.9-2.2,7.1-3.3,12.6-3.3c2.3,0,4.5,0.2,6.6,0.7c2.1,0.5,3.7,1.2,4.9,2.4
		c1.2,1.1,1.8,2.9,1.8,5.2v35.5C688.9,88.5,686.4,89.5,683.7,90.2z"/>
	<path class="st0" d="M60.8,113.7c-15,0-26.2,4-33.5,11.9c-7.3,8-10.9,19.7-10.9,35.1c0,15.9,3.8,27.7,11.4,35.3
		c7.6,7.6,18.6,11.4,33,11.4c3.2,0,6.6-0.3,10.1-0.8c3.5-0.5,6.8-1.3,10-2.2c3.2-0.9,6-2,8.6-3.3v-19c-4.7,3.1-9.1,5.2-13.4,6.5
		c-4.2,1.3-8,1.9-11.3,1.9c-5.6,0-10.3-0.9-14.1-2.8c-3.8-1.8-6.7-4.9-8.6-9.2c-1.9-4.3-2.9-10.2-2.9-17.7c0-7.5,1-13.4,2.9-17.8
		c1.9-4.4,4.7-7.6,8.4-9.4s8.1-2.8,13.4-2.8c3.8,0,7.8,0.7,12.1,2c4.3,1.3,8.8,3.6,13.5,6.6v-19c-4.6-2.1-9.3-3.7-14.2-4.9
		C70.4,114.3,65.6,113.7,60.8,113.7z"/>
	<path class="st0" d="M157.3,142c-2.2-1.8-4.6-3.2-7.2-4.1c-2.6-0.9-5.2-1.6-7.8-2c-2.6-0.4-5-0.5-7.2-0.5c-6.1,0-11.6,0.6-16.5,1.9
		c-4.9,1.3-8.5,2.6-10.9,4v17.8c2.5-2,5.8-3.7,9.8-5.1c4-1.4,8-2.1,11.9-2.1c4.9,0,8.6,0.9,11.3,2.8c2.7,1.8,4,4.8,4,9v4.3
		c-0.7-0.4-1.3-0.7-2.1-1.1c-2.3-1.1-4.9-1.9-7.8-2.6c-2.9-0.6-5.8-0.9-8.9-0.9c-5.5,0-10,0.9-13.6,2.6c-3.6,1.7-6.3,4.1-8,7.3
		c-1.8,3.1-2.6,6.8-2.6,11.1c0,4.5,0.8,8.3,2.3,11.3c1.5,3,3.7,5.4,6.4,7.2c2.7,1.8,5.9,3,9.6,3.8c3.6,0.8,7.5,1.1,11.7,1.1
		c6.9,0,12.8-0.5,17.7-1.6c4.9-1.1,8.7-2.8,11.3-5.2c2.6-2.4,3.9-5.5,3.9-9.4l0.1-32.2c0-4.1-0.7-7.6-2-10.4
		C161.3,146.1,159.5,143.8,157.3,142z M142,192.6c-1.8,0.6-5.1,0.9-9.6,0.9c-1.8,0-3.5-0.4-5.2-1.1c-1.7-0.7-3-1.8-4-3.1
		c-1-1.3-1.5-2.9-1.5-4.6c0-2.8,1-4.8,3-6.1c2-1.3,5.2-2,9.6-2c2.9,0,5.6,0.3,8.1,0.9c0.8,0.2,1.6,0.4,2.3,0.7v10.5
		C144.7,190.7,143.8,192,142,192.6z"/>
	<path class="st0" d="M275.7,137.9c-4.2-1.6-9.3-2.4-15.4-2.4c-3.8,0-7.9,0.5-12.3,1.6c-3.5,0.8-6.8,1.9-10,3.2
		c-1.4-1-2.9-1.8-4.6-2.4c-4.2-1.6-9.3-2.4-15.4-2.4c-2.9,0-6,0.2-9.4,0.7c-3.4,0.5-6.7,1-10.1,1.8c-3.3,0.7-6.4,1.6-9.2,2.5
		c-2.8,0.9-5,1.9-6.7,2.8v62.5h20.1v-51.3c1.1-0.5,2.5-1.1,4.2-1.6c1.8-0.5,3.7-0.7,5.7-0.7c2.4,0,4.5,0.3,6.2,0.9
		c1.7,0.6,3.1,1.4,4,2.4c1,1,1.7,2.3,2.2,3.7c0.5,1.4,0.7,3,0.7,4.7v41.8h20.1v-45.9c0-1.8-0.1-3.5-0.3-5.1c1-0.7,2.2-1.3,3.6-1.7
		c1.8-0.6,3.7-0.9,5.7-0.9c2.4,0,4.5,0.3,6.2,0.9c1.7,0.6,3.1,1.4,4,2.4c1,1,1.7,2.3,2.2,3.7c0.5,1.4,0.7,3,0.7,4.7v41.8h20.1v-45.9
		c0-6-1.1-10.8-3.2-14.3C283,142,279.8,139.5,275.7,137.9z"/>
	<path class="st0" d="M356.6,138.6c-5.2-2.3-11.2-3.4-18-3.4c-4.5,0-8.7,0.3-12.6,1c-3.9,0.7-7.4,1.7-10.3,3c-3,1.3-5.3,3.1-7,5.1
		c-1.7,2.1-2.6,4.6-2.6,7.6v78.2h19.7v-26c1,0.5,2,1,3.1,1.4c2.8,0.9,5.5,1.6,8.1,1.8c2.6,0.3,4.6,0.4,5.9,0.4
		c6.4,0,11.8-1.5,16.3-4.5c4.5-3,7.9-7.1,10.3-12.5c2.4-5.4,3.6-11.5,3.6-18.6c0-9.4-1.5-16.7-4.4-22.1
		C365.8,144.7,361.8,140.8,356.6,138.6z M351.2,183.3c-1.2,2.9-3,5-5.3,6.3c-2.3,1.3-5.3,1.9-8.9,1.9c-1.6,0-3.5-0.2-5.5-0.7
		c-2.1-0.4-4-1.2-5.7-2.2v-32.1c0-1.3,0.9-2.4,2.8-3.3c1.8-0.9,4.9-1.3,9.2-1.3c4,0,7,0.8,9.2,2.4c2.2,1.6,3.8,3.8,4.7,6.7
		c0.9,2.9,1.3,6.4,1.3,10.5C353,176.5,352.4,180.4,351.2,183.3z"/>
	<path class="st0" d="M431.6,178c0,4.3-0.9,7.5-2.8,9.6c-1.9,2.1-5,3.2-9.3,3.2c-4.2,0-7.3-1.1-9.2-3.2c-1.9-2.1-2.9-5.3-2.9-9.6
		v-40.6h-20.1v42.2c0,6.6,1.3,11.9,4,16c2.7,4.1,6.5,7.1,11.3,9.1c4.9,2,10.4,3,16.7,3c9.6,0,17.2-2.2,22.8-6.7
		c5.6-4.5,8.4-11.6,8.4-21.3v-42.2h-18.9V178z"/>
	<path class="st0" d="M511.8,169.9c-2.1-1.4-4.4-2.5-6.7-3.2c-2.4-0.8-4.7-1.4-6.9-2c-2.1-0.5-4-1.1-5.7-1.7
		c-1.7-0.6-3.1-1.4-4.1-2.4c-1-1-1.6-2.3-1.6-4c0-1.8,0.8-3.2,2.3-4.3c1.5-1.1,4-1.6,7.6-1.6c3.9,0,7.3,0.7,10.3,2.2
		c3,1.5,6,3.1,9.1,4.8v-15.8c-2.7-1.6-5.7-2.9-9-4c-3.3-1-7.7-1.6-13.3-1.8c-3.1-0.1-6.2,0.2-9.4,1c-3.2,0.8-6.3,2-9,3.8
		c-2.8,1.8-5,4.2-6.7,7.1c-1.7,2.9-2.6,6.6-2.6,11c0,3.4,0.5,6.3,1.6,8.7c1,2.4,2.4,4.4,4.1,6c1.7,1.6,3.6,2.9,5.8,3.8
		c2.2,0.9,4.3,1.6,6.5,2.1c2.4,0.5,4.7,1.1,6.9,1.8c2.2,0.6,3.9,1.4,5.3,2.4c1.3,0.9,2,2.2,2,3.7c0,1.6-0.7,3-2,4.1
		c-1.3,1.1-3.6,1.7-6.8,1.7c-3.1,0-6.1-0.4-9-1.2c-2.8-0.8-5.4-1.9-7.8-3.2c-2.3-1.3-4.5-2.6-6.3-3.8v17.7c3.1,1.3,6.3,2.4,9.8,3.4
		c3.5,1,7.6,1.6,12.5,1.6c5.3,0,10.2-0.7,14.8-2.1c4.5-1.4,8.3-3.7,11.1-7c2.9-3.3,4.4-7.7,4.5-13.2c0-4-0.7-7.3-2-9.8
		C515.6,173.2,513.9,171.3,511.8,169.9z"/>
</g>
</svg>
